<?xml version="1.0" encoding="UTF-8"?>
<svg id="Layer_2" data-name="Layer 2" xmlns="http://www.w3.org/2000/svg" viewBox="0 0 200.03 35.6">
  <defs>
    <style>
      .cls-1 {
        fill: #fff;
      }
    </style>
  </defs>
  <g id="Layer_1-2" data-name="Layer 1">
    <path class="cls-1" d="M0,6.61h11.45c8.24,0,13.89,4.97,13.89,12.6s-5.65,12.6-13.89,12.6H0V6.61ZM11.16,27.02c5,0,8.28-2.99,8.28-7.81s-3.28-7.81-8.28-7.81h-5.33v15.62h5.33Z"/>
    <path class="cls-1" d="M28.66,6.61c0-1.76,1.4-3.13,3.49-3.13s3.49,1.3,3.49,3.02c0,1.87-1.4,3.24-3.49,3.24s-3.49-1.37-3.49-3.13ZM29.34,12.45h5.62v19.37h-5.62V12.45Z"/>
    <path class="cls-1" d="M38.3,30.01l1.87-4.03c1.73,1.12,4.36,1.87,6.73,1.87,2.59,0,3.56-.68,3.56-1.76,0-3.17-11.7.07-11.7-7.67,0-3.67,3.31-6.26,8.96-6.26,2.66,0,5.62.61,7.45,1.69l-1.87,4c-1.91-1.08-3.82-1.44-5.58-1.44-2.52,0-3.6.79-3.6,1.8,0,3.31,11.7.11,11.7,7.74,0,3.6-3.35,6.16-9.14,6.16-3.28,0-6.59-.9-8.39-2.09Z"/>
    <path class="cls-1" d="M71.31,12.16v5.18c-.47-.04-.83-.07-1.26-.07-3.1,0-5.15,1.69-5.15,5.4v9.14h-5.62V12.45h5.36v2.56c1.37-1.87,3.67-2.84,6.66-2.84Z"/>
    <path class="cls-1" d="M92.79,17.95v.59c0,2.64-1.03,4.22-2.61,4.87l-2.47,5.17c2.12-.15,4.03-1.02,5.38-2.56v2.3h5.33V8.96h-1.32l-4.3,8.98Z"/>
    <path class="cls-1" d="M84.24,27.24c-2.48,0-3.92-1.44-3.92-4.68v-10.11h-5.62v10.94c0,5.98,3.42,8.71,8.28,8.71.21,0,.42-.02.64-.03l2.47-5.17c-.56.23-1.18.35-1.85.35Z"/>
    <polygon class="cls-1" points="88.7 12.45 88.7 21.43 93 12.45 88.7 12.45"/>
    <path class="cls-1" d="M124.72,18.65c0,6.08-4.21,9.97-9.65,9.97-2.41,0-4.39-.76-5.83-2.34v9.04h-5.62V8.96h5.36v2.23c1.4-1.69,3.49-2.52,6.08-2.52,5.44,0,9.65,3.89,9.65,9.97ZM119.03,18.65c0-3.35-2.12-5.36-4.93-5.36s-4.93,2.02-4.93,5.36,2.12,5.36,4.93,5.36,4.93-2.02,4.93-5.36Z"/>
    <path class="cls-1" d="M140.95,27.39c-1.15.83-2.84,1.22-4.57,1.22-4.57,0-7.24-2.34-7.24-6.95v-7.96h-2.99v-4.32h2.99v-4.72h5.62v4.72h4.82v4.32h-4.82v7.88c0,1.66.9,2.56,2.41,2.56.83,0,1.66-.25,2.27-.72l1.51,3.96Z"/>
    <path class="cls-1" d="M143.44,3.13c0-1.76,1.4-3.13,3.49-3.13s3.49,1.3,3.49,3.02c0,1.87-1.4,3.24-3.49,3.24s-3.49-1.37-3.49-3.13ZM144.12,8.96h5.62v19.37h-5.62V8.96Z"/>
    <path class="cls-1" d="M174.76,17.24v11.09h-5.62v-10.22c0-3.13-1.44-4.57-3.92-4.57-2.7,0-4.64,1.66-4.64,5.22v9.58h-5.62V8.96h5.36v2.27c1.51-1.66,3.78-2.56,6.41-2.56,4.57,0,8.03,2.66,8.03,8.57Z"/>
    <path class="cls-1" d="M200.03,8.96v16.13c0,7.2-3.89,10.51-10.87,10.51-3.67,0-7.24-.9-9.5-2.66l2.23-4.03c1.66,1.33,4.36,2.2,6.84,2.2,3.96,0,5.69-1.8,5.69-5.29v-.83c-1.48,1.62-3.6,2.41-6.12,2.41-5.36,0-9.68-3.71-9.68-9.36s4.32-9.36,9.68-9.36c2.7,0,4.93.9,6.41,2.77v-2.48h5.33ZM194.49,18.03c0-2.84-2.12-4.75-5.08-4.75s-5.11,1.91-5.11,4.75,2.16,4.75,5.11,4.75,5.08-1.91,5.08-4.75Z"/>
  </g>
</svg>